<svg xmlns="http://www.w3.org/2000/svg" viewBox="0 0 820 500"><rect width="820" height="500" fill="white"/><text x="410" y="30" text-anchor="middle" font-family="sans-serif" font-size="20" font-weight="700">V10 constant 75% active-state speed</text><line x1="80" y1="65" x2="790" y2="65" stroke="#e5e7eb"/><text x="72" y="69" text-anchor="end" font-family="sans-serif" font-size="11">7.95</text><line x1="80" y1="139" x2="790" y2="139" stroke="#e5e7eb"/><text x="72" y="143" text-anchor="end" font-family="sans-serif" font-size="11">6.38</text><line x1="80" y1="213" x2="790" y2="213" stroke="#e5e7eb"/><text x="72" y="217" text-anchor="end" font-family="sans-serif" font-size="11">4.81</text><line x1="80" y1="287" x2="790" y2="287" stroke="#e5e7eb"/><text x="72" y="291" text-anchor="end" font-family="sans-serif" font-size="11">3.24</text><line x1="80" y1="361" x2="790" y2="361" stroke="#e5e7eb"/><text x="72" y="365" text-anchor="end" font-family="sans-serif" font-size="11">1.66</text><line x1="80" y1="435" x2="790" y2="435" stroke="#e5e7eb"/><text x="72" y="439" text-anchor="end" font-family="sans-serif" font-size="11">0.09</text><line x1="80" y1="435" x2="790" y2="435" stroke="black"/><line x1="80" y1="65" x2="80" y2="435" stroke="black"/><polyline points="80.0,385.3 181.4,320.9 384.3,239.5 790.0,65.0" fill="none" stroke="#2563eb" stroke-width="3"/><circle cx="80" cy="385.2837511133732" r="4" fill="#2563eb"/><circle cx="181.42857142857142" cy="320.92569029138565" r="4" fill="#2563eb"/><circle cx="384.2857142857143" cy="239.5247486957628" r="4" fill="#2563eb"/><circle cx="790" cy="65" r="4" fill="#2563eb"/><text x="95" y="83" font-family="sans-serif" font-size="12" fill="#2563eb">vs dense</text><polyline points="80.0,407.0 181.4,425.3 384.3,434.0 790.0,435.0" fill="none" stroke="#dc2626" stroke-width="3"/><circle cx="80" cy="406.98753022012977" r="4" fill="#dc2626"/><circle cx="181.42857142857142" cy="425.30156508461636" r="4" fill="#dc2626"/><circle cx="384.2857142857143" cy="434.01132459600456" r="4" fill="#dc2626"/><circle cx="790" cy="435" r="4" fill="#dc2626"/><text x="95" y="101" font-family="sans-serif" font-size="12" fill="#dc2626">vs CSR</text><text x="435" y="482" text-anchor="middle" font-family="sans-serif" font-size="13">N</text><text transform="translate(20 250) rotate(-90)" text-anchor="middle" font-family="sans-serif" font-size="13">speedup ×</text><text x="790" y="83" text-anchor="end" font-family="sans-serif" font-size="11" fill="#374151">quality-preserving fraction</text><text x="790" y="99" text-anchor="end" font-family="sans-serif" font-size="11" fill="#374151">CSR wins at high N here</text></svg>