<svg xmlns="http://www.w3.org/2000/svg" viewBox="0 0 820 500"><rect width="820" height="500" fill="white"/><text x="410" y="30" text-anchor="middle" font-family="sans-serif" font-size="20" font-weight="700">V7 exact structured matrix-operation frontier</text><line x1="80" y1="65" x2="790" y2="65" stroke="#e5e7eb"/><text x="72" y="69" text-anchor="end" font-family="sans-serif" font-size="11">199.02</text><line x1="80" y1="139" x2="790" y2="139" stroke="#e5e7eb"/><text x="72" y="143" text-anchor="end" font-family="sans-serif" font-size="11">166.47</text><line x1="80" y1="213" x2="790" y2="213" stroke="#e5e7eb"/><text x="72" y="217" text-anchor="end" font-family="sans-serif" font-size="11">133.91</text><line x1="80" y1="287" x2="790" y2="287" stroke="#e5e7eb"/><text x="72" y="291" text-anchor="end" font-family="sans-serif" font-size="11">101.36</text><line x1="80" y1="361" x2="790" y2="361" stroke="#e5e7eb"/><text x="72" y="365" text-anchor="end" font-family="sans-serif" font-size="11">68.80</text><line x1="80" y1="435" x2="790" y2="435" stroke="#e5e7eb"/><text x="72" y="439" text-anchor="end" font-family="sans-serif" font-size="11">36.25</text><line x1="80" y1="435" x2="790" y2="435" stroke="black"/><line x1="80" y1="65" x2="80" y2="435" stroke="black"/><polyline points="80.0,353.1 257.5,199.2 435.0,368.8 612.5,429.6" fill="none" stroke="#2563eb" stroke-width="3"/><circle cx="80" cy="353.1440068808748" r="4" fill="#2563eb"/><circle cx="257.5" cy="199.16108619524485" r="4" fill="#2563eb"/><circle cx="435" cy="368.7832524420962" r="4" fill="#2563eb"/><circle cx="612.5" cy="429.5671806844013" r="4" fill="#2563eb"/><text x="95" y="83" font-family="sans-serif" font-size="12" fill="#2563eb">Q-FFT</text><polyline points="80.0,435.0 257.5,365.0 435.0,211.6 612.5,65.0 790.0,318.8" fill="none" stroke="#dc2626" stroke-width="3"/><circle cx="80" cy="435" r="4" fill="#dc2626"/><circle cx="257.5" cy="365.00982982122014" r="4" fill="#dc2626"/><circle cx="435" cy="211.59519567487868" r="4" fill="#dc2626"/><circle cx="612.5" cy="65" r="4" fill="#dc2626"/><circle cx="790" cy="318.7513055231308" r="4" fill="#dc2626"/><text x="95" y="101" font-family="sans-serif" font-size="12" fill="#dc2626">QBit dedup</text><text x="435" y="482" text-anchor="middle" font-family="sans-serif" font-size="13">configuration index</text><text transform="translate(20 250) rotate(-90)" text-anchor="middle" font-family="sans-serif" font-size="13">measured speedup ×</text><text x="790" y="83" text-anchor="end" font-family="sans-serif" font-size="11" fill="#374151">best exact compatible kernel: 199.02×</text><text x="790" y="99" text-anchor="end" font-family="sans-serif" font-size="11" fill="#374151">not Transformer end-to-end</text></svg>